<svg width="10" height="10" viewBox="0 0 10 10" fill="none" xmlns="http://www.w3.org/2000/svg">
<g clip-path="url(#clip0_1584_49627)">
<path d="M5.56046 0.556734C5.45517 0.343419 5.23791 0.208374 5.00002 0.208374C4.76213 0.208374 4.54487 0.343419 4.43958 0.556734L3.29736 2.87075L0.742961 3.24411C0.507611 3.27851 0.312186 3.44352 0.238825 3.66977C0.165464 3.89603 0.226885 4.14431 0.397271 4.31027L2.24511 6.11006L1.80902 8.65272C1.7688 8.88721 1.8652 9.1242 2.05769 9.26403C2.25017 9.40386 2.50536 9.42228 2.71593 9.31155L5.00002 8.11036L7.28411 9.31155C7.49469 9.42228 7.74987 9.40386 7.94236 9.26403C8.13484 9.1242 8.23124 8.88721 8.19103 8.65272L7.75493 6.11006L9.60277 4.31027C9.77316 4.14431 9.83458 3.89603 9.76122 3.66977C9.68786 3.44352 9.49243 3.27851 9.25708 3.24411L6.70268 2.87075L5.56046 0.556734Z" fill="#FFE202"/>
</g>
<defs>
<clipPath id="clip0_1584_49627">
<rect width="10" height="10" fill="white"/>
</clipPath>
</defs>
</svg>
