<svg width="16" height="16" viewBox="0 0 16 16" fill="none" xmlns="http://www.w3.org/2000/svg">
<g clip-path="url(#clip0_1584_48049)">
<path d="M8.00002 7.33335C8.36821 7.33335 8.66669 7.63183 8.66669 8.00002V10.6667C8.66669 11.0349 8.36821 11.3334 8.00002 11.3334C7.63183 11.3334 7.33335 11.0349 7.33335 10.6667V8.00002C7.33335 7.63183 7.63183 7.33335 8.00002 7.33335Z" fill="black"/>
<path d="M8.00002 4.66669C7.63183 4.66669 7.33335 4.96516 7.33335 5.33335C7.33335 5.70154 7.63183 6.00002 8.00002 6.00002H8.00669C8.37488 6.00002 8.67335 5.70154 8.67335 5.33335C8.67335 4.96516 8.37488 4.66669 8.00669 4.66669H8.00002Z" fill="black"/>
<path fill-rule="evenodd" clip-rule="evenodd" d="M0.666687 8.00002C0.666687 3.94993 3.94993 0.666687 8.00002 0.666687C12.0501 0.666687 15.3334 3.94993 15.3334 8.00002C15.3334 12.0501 12.0501 15.3334 8.00002 15.3334C3.94993 15.3334 0.666687 12.0501 0.666687 8.00002ZM8.00002 2.00002C4.68631 2.00002 2.00002 4.68631 2.00002 8.00002C2.00002 11.3137 4.68631 14 8.00002 14C11.3137 14 14 11.3137 14 8.00002C14 4.68631 11.3137 2.00002 8.00002 2.00002Z" fill="black"/>
</g>
<defs>
<clipPath id="clip0_1584_48049">
<rect width="16" height="16" fill="white"/>
</clipPath>
</defs>
</svg>
