<svg width="24" height="24" viewBox="0 0 24 24" fill="none" xmlns="http://www.w3.org/2000/svg">
<path d="M11 17C11 16.4477 11.4477 16 12 16H12.01C12.5623 16 13.01 16.4477 13.01 17C13.01 17.5523 12.5623 18 12.01 18H12C11.4477 18 11 17.5523 11 17Z" fill="#3A3A3A"/>
<path d="M10.9066 8.27127C11.3138 8.03196 11.7926 7.94448 12.2581 8.02433C12.7236 8.10417 13.1459 8.3462 13.4501 8.70754C13.7542 9.06887 13.9207 9.5262 13.92 9.99852L13.92 10C13.92 10.4691 13.5549 10.9582 12.8653 11.418C12.5509 11.6275 12.2294 11.789 11.9826 11.8987C11.8606 11.9529 11.7603 11.993 11.6929 12.0186C11.6593 12.0315 11.6341 12.0406 11.6187 12.0461L11.6027 12.0517C11.0795 12.2267 10.7968 12.7926 10.9713 13.3162C11.146 13.8402 11.7123 14.1233 12.2362 13.9487L12.2887 13.9305L12.2375 13.9483L12.239 13.9478L12.2429 13.9464L12.2887 13.9305C12.3173 13.9203 12.3565 13.9061 12.4049 13.8876C12.5015 13.8508 12.6356 13.7971 12.7949 13.7263C13.1106 13.586 13.5391 13.3725 13.9747 13.0821C14.7849 12.5419 15.9196 11.5313 15.92 10.0009C15.9213 9.05649 15.5883 8.14206 14.9801 7.41953C14.3718 6.69686 13.5273 6.21281 12.5962 6.05311C11.6652 5.89341 10.7077 6.06838 9.89327 6.54701C9.07887 7.02564 8.46014 7.77705 8.14667 8.66816C7.9634 9.18915 8.23717 9.76007 8.75816 9.94334C9.27915 10.1266 9.85006 9.85284 10.0333 9.33185C10.1901 8.8863 10.4994 8.51059 10.9066 8.27127Z" fill="#3A3A3A"/>
<path fill-rule="evenodd" clip-rule="evenodd" d="M1 12C1 5.92487 5.92487 1 12 1C18.0751 1 23 5.92487 23 12C23 18.0751 18.0751 23 12 23C5.92487 23 1 18.0751 1 12ZM12 3C7.02944 3 3 7.02944 3 12C3 16.9706 7.02944 21 12 21C16.9706 21 21 16.9706 21 12C21 7.02944 16.9706 3 12 3Z" fill="#3A3A3A"/>
</svg>
