<svg width="16" height="16" viewBox="0 0 16 16" fill="none" xmlns="http://www.w3.org/2000/svg">
<path fill-rule="evenodd" clip-rule="evenodd" d="M4.69982 1.33333C3.55026 1.33333 2.44779 1.79 1.63493 2.60286C0.822063 3.41572 0.365402 4.5182 0.365402 5.66776C0.365402 6.81732 0.822063 7.91979 1.63493 8.73266L7.52857 14.6263C7.56111 14.6588 7.59619 14.6873 7.63316 14.7117C7.89194 14.8826 8.24361 14.8541 8.47143 14.6263L14.3651 8.73266C15.1779 7.91979 15.6346 6.81732 15.6346 5.66776C15.6346 4.5182 15.1779 3.41572 14.3651 2.60286C13.5522 1.79 12.4497 1.33333 11.3002 1.33333C10.1506 1.33333 9.04814 1.79 8.23528 2.60286L8 2.83813L7.76472 2.60286C6.95186 1.79 5.84939 1.33333 4.69982 1.33333ZM8.47143 4.25242C8.24361 4.48024 7.89194 4.50872 7.63316 4.33785C7.59619 4.31344 7.56111 4.28497 7.52857 4.25242L6.82187 3.54572C6.25907 2.98292 5.49574 2.66674 4.69982 2.66674C3.9039 2.66674 3.14058 2.98292 2.57778 3.54572C2.01498 4.10852 1.69881 4.87184 1.69881 5.66776C1.69881 6.46368 2.01498 7.227 2.57778 7.7898L8 13.212L13.4222 7.7898C13.985 7.227 14.3012 6.46368 14.3012 5.66776C14.3012 4.87184 13.985 4.10852 13.4222 3.54572C12.8594 2.98292 12.0961 2.66674 11.3002 2.66674C10.5043 2.66674 9.74094 2.98292 9.17814 3.54572L8.47143 4.25242Z" fill="#3A3A3A"/>
</svg>
