<svg width="274" height="64" viewBox="0 0 274 64" fill="none" xmlns="http://www.w3.org/2000/svg">
<path fill-rule="evenodd" clip-rule="evenodd" d="M13.2432 8.52906C16.0682 3.97156 21.0952 0 29.0103 0C36.9254 0 41.9524 3.97156 44.7773 8.52905C47.4884 12.903 48.3299 17.9698 48.3299 21.3333H53.7256C56.4675 21.3333 58.5068 23.6238 57.9191 26.0435L49.4402 60.9526C49.008 62.7321 47.2633 64 45.2467 64H12.7738C10.7573 64 9.01254 62.7321 8.58033 60.9526L0.101482 26.0435C-0.486212 23.6238 1.55304 21.3333 4.29497 21.3333H9.69061C9.69061 17.9698 10.5321 12.903 13.2432 8.52906ZM37.2855 12.3194C39.0823 15.2182 39.7434 18.8787 39.7434 21.3333H18.2771C18.2771 18.8787 18.9383 15.2182 20.735 12.3194C22.418 9.6042 24.9042 7.75758 29.0103 7.75758C33.1163 7.75758 35.6025 9.6042 37.2855 12.3194ZM29.0103 45.6827C33.7267 45.6827 37.9452 42.2292 40.7546 39.2L46.1833 44.1046C41.9754 48.3801 35.841 52.6009 29.0103 52.6009C22.1795 52.6009 16.0451 48.3801 11.8372 44.1046L17.2659 39.2C20.0753 42.2292 24.2938 45.6827 29.0103 45.6827Z" fill="#FFE202"/>
<path d="M89.2606 23.9484C85.8329 23.9484 83.2362 25.1871 81.834 27.0968V14.3484H74.0439V50.4775H81.834V36.3871C81.834 32.7226 83.8075 31.071 86.6639 31.071C89.1567 31.071 91.1821 32.5678 91.1821 35.7678V50.4775H98.9722V34.6323C98.9722 27.6646 94.5059 23.9484 89.2606 23.9484Z" fill="#3A3A3A"/>
<path d="M123.174 24.671V27.0968C121.46 25.1355 118.915 23.9484 115.436 23.9484C108.632 23.9484 103.023 29.8839 103.023 37.5742C103.023 45.2646 108.632 51.2001 115.436 51.2001C118.915 51.2001 121.46 50.013 123.174 48.0517V50.4775H130.964V24.671H123.174ZM116.994 43.871C113.41 43.871 110.814 41.4452 110.814 37.5742C110.814 33.7033 113.41 31.2775 116.994 31.2775C120.577 31.2775 123.174 33.7033 123.174 37.5742C123.174 41.4452 120.577 43.871 116.994 43.871Z" fill="#3A3A3A"/>
<path d="M152.207 23.9484C148.728 23.9484 146.183 25.1355 144.469 27.0968V14.3484H136.679V50.4775H144.469V48.0517C146.183 50.013 148.728 51.2001 152.207 51.2001C159.011 51.2001 164.62 45.2646 164.62 37.5742C164.62 29.8839 159.011 23.9484 152.207 23.9484ZM150.649 43.871C147.066 43.871 144.469 41.4452 144.469 37.5742C144.469 33.7033 147.066 31.2775 150.649 31.2775C154.233 31.2775 156.829 33.7033 156.829 37.5742C156.829 41.4452 154.233 43.871 150.649 43.871Z" fill="#3A3A3A"/>
<path d="M172.931 22.4C175.476 22.4 177.605 20.2839 177.605 17.7549C177.605 15.2259 175.476 13.1097 172.931 13.1097C170.387 13.1097 168.257 15.2259 168.257 17.7549C168.257 20.2839 170.387 22.4 172.931 22.4ZM169.036 50.4775H176.826V24.671H169.036V50.4775Z" fill="#3A3A3A"/>
<path d="M197.744 32.1033V24.671H192.394V17.4452L184.604 19.7678V24.671H180.45V32.1033H184.604V41.2388C184.604 48.4646 187.565 51.5097 197.744 50.4775V43.4581C194.316 43.6646 192.394 43.4581 192.394 41.2388V32.1033H197.744Z" fill="#3A3A3A"/>
<path d="M219.436 24.671V38.7613C219.436 42.4259 217.463 44.0775 214.606 44.0775C212.113 44.0775 210.088 42.5807 210.088 39.3807V24.671H202.298V40.5162C202.298 47.4839 206.764 51.2001 212.01 51.2001C215.437 51.2001 218.034 49.9613 219.436 48.0517V50.4775H227.226V24.671H219.436Z" fill="#3A3A3A"/>
<path d="M251.791 24.671V27.0968C250.078 25.1355 247.533 23.9484 244.053 23.9484C237.25 23.9484 231.641 29.8839 231.641 37.5742C231.641 45.2646 237.25 51.2001 244.053 51.2001C247.533 51.2001 250.078 50.013 251.791 48.0517V50.4775H259.581V24.671H251.791ZM245.611 43.871C242.028 43.871 239.431 41.4452 239.431 37.5742C239.431 33.7033 242.028 31.2775 245.611 31.2775C249.195 31.2775 251.791 33.7033 251.791 37.5742C251.791 41.4452 249.195 43.871 245.611 43.871Z" fill="#3A3A3A"/>
<path d="M265.297 50.4775H273.087V12.8H265.297V50.4775Z" fill="#3A3A3A"/>
</svg>
