<svg width="33" height="34" viewBox="0 0 33 34" fill="none" xmlns="http://www.w3.org/2000/svg">
<g filter="url(#filter0_d_1014_495)">
<rect x="5" y="2" width="24" height="24" rx="12" fill="white"/>
<g clip-path="url(#clip0_1014_495)">
<path d="M12.0497 9.77467C12.7062 9.11818 13.5966 8.74936 14.525 8.74936C15.4533 8.74936 16.3435 9.11805 17 9.77435C17.6565 9.11805 18.5467 8.74936 19.475 8.74936C20.4034 8.74936 21.2938 9.11818 21.9503 9.77467C22.6068 10.4312 22.9756 11.3216 22.9756 12.25C22.9756 13.1784 22.6068 14.0688 21.9503 14.7253L17.5303 19.1453C17.274 19.4016 16.8784 19.4337 16.5873 19.2414C16.5457 19.214 16.5063 19.1819 16.4697 19.1453L12.0497 14.7253C11.3932 14.0688 11.0244 13.1784 11.0244 12.25C11.0244 11.3216 11.3932 10.4312 12.0497 9.77467Z" fill="#FE8668"/>
</g>
</g>
<defs>
<filter id="filter0_d_1014_495" x="0" y="0" width="34" height="34" filterUnits="userSpaceOnUse" color-interpolation-filters="sRGB">
<feFlood flood-opacity="0" result="BackgroundImageFix"/>
<feColorMatrix in="SourceAlpha" type="matrix" values="0 0 0 0 0 0 0 0 0 0 0 0 0 0 0 0 0 0 127 0" result="hardAlpha"/>
<feOffset dy="3"/>
<feGaussianBlur stdDeviation="2.5"/>
<feColorMatrix type="matrix" values="0 0 0 0 0 0 0 0 0 0 0 0 0 0 0 0 0 0 0.15 0"/>
<feBlend mode="normal" in2="BackgroundImageFix" result="effect1_dropShadow_1014_495"/>
<feBlend mode="normal" in="SourceGraphic" in2="effect1_dropShadow_1014_495" result="shape"/>
</filter>
<clipPath id="clip0_1014_495">
<rect width="12" height="12" fill="white" transform="translate(11 8)"/>
</clipPath>
</defs>
</svg>
