<svg width="16" height="16" viewBox="0 0 16 16" fill="none" xmlns="http://www.w3.org/2000/svg">
<g clip-path="url(#clip0_1584_48024)">
<path d="M7.33335 11.3333C7.33335 10.9651 7.63183 10.6666 8.00002 10.6666H8.00669C8.37488 10.6666 8.67335 10.9651 8.67335 11.3333C8.67335 11.7015 8.37488 12 8.00669 12H8.00002C7.63183 12 7.33335 11.7015 7.33335 11.3333Z" fill="black"/>
<path d="M7.27111 5.51414C7.54258 5.3546 7.86175 5.29628 8.1721 5.34951C8.48245 5.40274 8.76394 5.56409 8.96672 5.80498C9.16951 6.04587 9.28049 6.35076 9.28002 6.66564L9.28002 6.66663C9.28002 6.97939 9.03662 7.30544 8.57689 7.61193C8.36731 7.75165 8.15299 7.85929 7.98843 7.93242C7.9071 7.96857 7.84025 7.99526 7.7953 8.01239C7.77287 8.02093 7.75606 8.02703 7.74581 8.03067L7.73517 8.03441C7.38632 8.15111 7.19788 8.52839 7.31423 8.87745C7.43066 9.22674 7.80821 9.41552 8.15751 9.29909L8.19249 9.28696L8.15834 9.29881L8.15936 9.29846L8.16196 9.29759L8.19249 9.28696C8.21153 9.28019 8.23769 9.27066 8.26996 9.25837C8.33438 9.23383 8.42378 9.19802 8.52995 9.15084C8.74039 9.05731 9.02607 8.91494 9.31649 8.72133C9.85665 8.36122 10.6131 7.68748 10.6134 6.66724C10.6142 6.03762 10.3922 5.428 9.98676 4.94632C9.58119 4.46453 9.0182 4.14183 8.39751 4.03537C7.77682 3.9289 7.13847 4.04554 6.59554 4.36463C6.0526 4.68372 5.64011 5.18466 5.43113 5.77873C5.30895 6.12606 5.49147 6.50667 5.83879 6.62885C6.18612 6.75103 6.56673 6.56852 6.68891 6.22119C6.7934 5.92416 6.99965 5.67368 7.27111 5.51414Z" fill="black"/>
<path fill-rule="evenodd" clip-rule="evenodd" d="M0.666687 7.99996C0.666687 3.94987 3.94993 0.666626 8.00002 0.666626C12.0501 0.666626 15.3334 3.94987 15.3334 7.99996C15.3334 12.05 12.0501 15.3333 8.00002 15.3333C3.94993 15.3333 0.666687 12.05 0.666687 7.99996ZM8.00002 1.99996C4.68631 1.99996 2.00002 4.68625 2.00002 7.99996C2.00002 11.3137 4.68631 14 8.00002 14C11.3137 14 14 11.3137 14 7.99996C14 4.68625 11.3137 1.99996 8.00002 1.99996Z" fill="black"/>
</g>
<defs>
<clipPath id="clip0_1584_48024">
<rect width="16" height="16" fill="white"/>
</clipPath>
</defs>
</svg>
