<svg width="14" height="14" viewBox="0 0 14 14" fill="none" xmlns="http://www.w3.org/2000/svg">
<path fill-rule="evenodd" clip-rule="evenodd" d="M0.333374 7.00001C0.333374 6.53977 0.70647 6.16668 1.16671 6.16668H12.8334C13.2936 6.16668 13.6667 6.53977 13.6667 7.00001C13.6667 7.46025 13.2936 7.83334 12.8334 7.83334H1.16671C0.70647 7.83334 0.333374 7.46025 0.333374 7.00001Z" fill="#3A3A3A"/>
<path fill-rule="evenodd" clip-rule="evenodd" d="M7.5893 0.577421C7.91473 0.902858 7.91473 1.4305 7.5893 1.75593L2.34522 7.00001L7.5893 12.2441C7.91473 12.5695 7.91473 13.0972 7.5893 13.4226C7.26386 13.748 6.73622 13.748 6.41079 13.4226L0.577452 7.58927C0.252015 7.26383 0.252015 6.73619 0.577452 6.41075L6.41079 0.577421C6.73622 0.251984 7.26386 0.251984 7.5893 0.577421Z" fill="#3A3A3A"/>
</svg>
